<svg xmlns="http://www.w3.org/2000/svg" height="24" viewBox="0 -960 960 960" width="24" fill="currentColor">
  <path d="M0-240v-63q0-35 17.5-64.5T66-413q46-24 93.5-35.5T256-460q11 0 22 .5t22 1.5q-19 25-29.5 54T260-344v104H0Zm300 0v-104q0-41 18.5-76.5T371-477q36-21 77-32t86-11q45 0 86 11t77 32q34 21 52.5 56.5T768-344v104H300Zm504 0v-104q0-31-10.5-60T764-458q11-1 22-1.5t22-.5q49 0 96.5 11.5T998-413q31 16 48.5 45.5T1064-303v63H804ZM256-492q-40 0-68-28t-28-68q0-40 28-68t68-28q40 0 68 28t28 68q0 40-28 68t-68 28Zm512 0q-40 0-68-28t-28-68q0-40 28-68t68-28q40 0 68 28t28 68q0 40-28 68t-68 28Zm-234 32q-53 0-90.5-37.5T506-588q0-53 37.5-90.5T634-716q53 0 90.5 37.5T762-588q0 53-37.5 90.5T634-460ZM480-160l-28-48q-7-12-19-18t-25-2l-51 16-36-62 44-35q10-8 13.5-20t.5-24l-14-54h72l14 54q3 12 12.5 20t24.5 9l50-16 36 62-44 35q-10 8-13.5 20t-.5 24l13 49-65-8Z"/>
</svg>
